<?xml version="1.0" standalone="no"?>
<!DOCTYPE svg PUBLIC "-//W3C//DTD SVG 20010904//EN"
 "http://www.w3.org/TR/2001/REC-SVG-20010904/DTD/svg10.dtd">
<svg version="1.0" xmlns="http://www.w3.org/2000/svg"
 width="700.000000pt" height="700.000000pt" viewBox="0 0 700.000000 700.000000"
 preserveAspectRatio="xMidYMid meet">
<metadata>
Created by potrace 1.14, written by Peter Selinger 2001-2017
</metadata>
<g transform="translate(0.000000,700.000000) scale(0.100000,-0.100000)"
fill="#000000" stroke="none">
<path d="M3490 6720 c0 -5 5 -10 11 -10 5 0 7 5 4 10 -3 6 -8 10 -11 10 -2 0
-4 -4 -4 -10z"/>
<path d="M3494 6612 c-1 -42 -4 -275 -9 -517 -4 -242 -8 -514 -10 -605 -5
-290 -17 -960 -20 -1125 -2 -88 -4 -214 -5 -280 l-2 -120 -17 55 c-9 30 -35
126 -56 212 -22 86 -41 156 -42 154 -3 -2 23 -185 41 -292 3 -16 7 -49 10 -74
6 -45 6 -45 -20 20 -14 36 -46 121 -70 190 -25 69 -63 172 -84 230 -21 58 -55
152 -76 210 -21 58 -42 110 -47 115 -7 7 -8 7 -5 0 4 -8 326 -982 345 -1045 3
-8 -79 110 -181 264 -102 153 -186 274 -186 269 0 -5 4 -13 9 -19 5 -5 23 -36
41 -69 18 -33 43 -78 55 -100 92 -164 161 -288 186 -335 l30 -55 -32 35 c-18
19 -80 87 -138 150 -58 63 -128 139 -156 169 -58 64 -70 77 -145 158 -30 32
-78 84 -105 114 -28 29 -104 113 -170 184 -65 72 -164 179 -219 239 -56 60
-108 116 -116 126 -14 16 -204 222 -226 244 -5 6 -33 37 -62 69 -29 31 -52 54
-52 50 0 -5 17 -26 38 -49 33 -37 60 -67 182 -209 19 -22 37 -42 40 -45 3 -3
54 -61 114 -130 60 -69 123 -141 140 -160 17 -19 108 -123 201 -230 93 -107
174 -200 179 -206 6 -6 34 -37 61 -69 28 -32 55 -63 60 -69 6 -6 55 -63 110
-126 54 -63 102 -117 105 -120 3 -3 30 -34 60 -70 l55 -65 -55 40 c-30 21
-120 86 -200 143 -80 57 -154 111 -165 119 -11 9 -1 -2 22 -23 22 -21 104 -90
180 -151 77 -62 153 -124 169 -139 l29 -25 -35 14 c-34 15 -361 162 -423 191
-121 57 -521 235 -523 233 -1 -1 206 -108 461 -237 255 -129 463 -236 462
-236 -1 -1 -110 29 -241 67 -132 37 -241 67 -243 65 -3 -3 105 -45 312 -122
100 -37 107 -32 -60 -39 -38 -1 -180 -5 -315 -9 -135 -4 -297 -9 -360 -11 -63
-3 -212 -7 -330 -10 -118 -3 -287 -7 -375 -10 -743 -23 -1038 -31 -1212 -35
-51 -1 -93 -6 -93 -10 0 -4 44 -8 98 -10 53 -1 144 -3 202 -5 58 -2 209 -6
335 -9 127 -4 293 -9 370 -11 77 -3 221 -7 320 -10 99 -3 261 -7 360 -10 99
-3 250 -8 335 -10 654 -19 792 -24 797 -28 2 -2 -91 -39 -207 -82 -115 -43
-209 -79 -207 -81 1 -1 110 29 242 67 132 38 243 68 247 67 4 -2 -193 -104
-437 -228 -244 -124 -442 -226 -441 -227 1 -2 59 22 127 52 133 60 139 62 272
124 49 23 90 41 92 41 1 0 41 17 87 39 161 74 377 171 383 171 3 0 -52 -46
-122 -102 -70 -56 -130 -104 -133 -107 -3 -3 -38 -32 -77 -64 -40 -32 -73 -60
-73 -62 0 -4 312 216 345 242 6 5 26 19 45 33 l35 24 -20 -25 c-12 -13 -41
-47 -65 -74 -44 -49 -126 -144 -170 -195 -12 -14 -34 -39 -48 -55 -15 -17 -56
-64 -92 -105 -36 -41 -67 -77 -70 -80 -3 -3 -50 -57 -105 -120 -55 -63 -102
-117 -105 -120 -3 -3 -48 -54 -100 -115 -52 -60 -97 -112 -100 -115 -8 -8
-124 -142 -146 -169 -10 -13 -26 -31 -35 -40 -35 -35 -299 -341 -299 -345 0
-3 19 16 43 42 23 26 53 58 67 72 14 14 70 75 125 135 54 61 106 117 115 126
8 8 56 60 105 114 50 54 101 110 115 125 14 15 68 74 120 130 52 57 116 127
142 155 25 27 59 64 74 80 15 17 72 79 128 139 56 60 108 116 116 126 19 21
172 188 235 255 l47 50 -30 -55 c-16 -30 -68 -122 -114 -205 -123 -219 -162
-291 -151 -280 6 6 85 122 177 260 91 137 166 248 166 245 0 -3 -56 -174 -124
-380 -68 -206 -129 -391 -134 -410 -6 -19 -27 -82 -46 -139 -62 -182 -32 -120
48 101 42 117 97 267 121 333 25 66 56 152 69 190 31 85 31 75 6 -85 -10 -69
-22 -143 -25 -165 -3 -22 -8 -46 -10 -52 -2 -7 -1 -13 3 -13 4 0 27 80 51 178
24 97 48 184 52 192 5 9 9 -41 10 -115 0 -71 2 -193 4 -270 1 -77 6 -322 10
-545 4 -223 8 -484 10 -580 2 -96 6 -350 10 -565 4 -214 8 -411 8 -437 1 -27
5 -48 8 -48 4 0 8 87 9 193 2 201 4 327 14 822 3 165 8 458 12 650 3 193 7
413 9 490 2 77 4 203 4 279 1 77 3 137 6 135 4 -5 81 -297 91 -344 2 -11 8
-33 14 -50 8 -26 9 -24 4 15 -3 25 -8 59 -11 75 -2 17 -6 39 -7 50 -9 64 -19
133 -22 150 -23 123 -14 113 47 -55 75 -205 98 -271 113 -313 48 -137 125
-341 125 -332 1 6 -76 241 -169 524 -94 283 -168 516 -166 519 2 2 10 -7 17
-20 18 -35 329 -501 342 -513 6 -5 3 2 -6 16 -8 15 -70 125 -137 245 -67 121
-133 239 -147 264 l-25 45 44 -46 c23 -25 84 -90 133 -144 50 -54 117 -127
149 -162 32 -35 66 -72 75 -82 21 -24 189 -207 272 -295 36 -39 88 -95 115
-125 27 -30 60 -66 74 -81 14 -14 68 -73 120 -130 52 -57 102 -111 110 -120
14 -14 201 -219 225 -246 60 -67 108 -115 110 -112 2 2 -18 26 -43 54 -46 49
-113 126 -183 209 -19 22 -36 42 -39 45 -3 3 -54 61 -114 130 -60 69 -135 154
-166 190 -31 36 -122 139 -201 230 -79 91 -156 179 -170 195 -26 29 -59 68
-279 320 -58 66 -107 122 -110 125 -43 43 -34 46 20 7 36 -26 83 -59 105 -74
22 -16 88 -63 147 -106 60 -42 108 -75 108 -73 0 4 -77 69 -140 119 -156 125
-261 211 -267 221 -5 8 -3 8 8 0 8 -7 46 -25 84 -42 39 -17 114 -51 168 -76
54 -25 99 -46 101 -46 3 0 37 -15 78 -34 209 -97 521 -236 524 -233 2 1 -201
106 -451 232 -249 127 -452 231 -451 232 1 1 109 -29 241 -67 131 -38 241 -68
242 -66 4 3 -129 55 -301 118 -95 34 -100 38 -55 39 19 1 66 2 104 4 39 1 189
6 335 10 146 3 303 8 350 10 47 2 198 6 335 9 138 4 297 8 355 11 58 2 206 7
330 10 124 4 286 8 360 10 74 3 243 7 375 11 310 8 312 8 319 15 3 3 -18 5
-47 6 -57 1 -420 11 -617 18 -69 2 -228 7 -355 10 -126 3 -286 8 -355 10 -69
2 -226 7 -350 10 -124 4 -281 8 -350 10 -69 2 -231 7 -360 10 -129 4 -273 8
-320 10 -47 2 -101 4 -120 5 -26 0 11 18 155 71 105 39 196 72 204 75 8 2 12
6 9 9 -2 2 -112 -27 -243 -65 -132 -37 -241 -68 -242 -67 -1 1 199 103 444
227 244 124 447 228 449 232 5 8 -22 -4 -221 -95 -191 -87 -197 -89 -466 -211
-142 -64 -261 -116 -265 -116 -5 0 3 8 17 18 38 25 328 262 364 297 17 17 22
23 11 14 -12 -9 -57 -42 -101 -73 -97 -68 -192 -136 -260 -185 l-50 -36 64 75
c35 41 77 91 95 110 17 19 76 87 131 150 55 63 114 131 131 150 17 19 98 112
179 205 148 170 251 288 270 309 6 6 53 60 105 121 52 60 107 123 122 140 30
34 42 48 118 136 30 35 77 89 104 119 33 37 26 31 -20 -15 -62 -63 -209 -221
-334 -359 -52 -58 -53 -59 -144 -157 -90 -97 -278 -301 -381 -415 -5 -6 -56
-60 -112 -120 -56 -60 -110 -119 -121 -131 -20 -24 -161 -177 -237 -258 l-47
-50 25 45 c14 25 69 124 122 220 123 221 169 306 163 300 -3 -3 -83 -122 -178
-265 -95 -143 -175 -263 -179 -267 -4 -4 73 234 171 529 97 296 176 538 174
540 -1 2 -42 -106 -90 -240 -48 -133 -109 -300 -136 -372 -26 -71 -55 -150
-63 -175 -21 -60 -21 -43 3 113 11 73 23 148 25 167 3 19 8 51 12 70 14 84 -9
9 -58 -187 -29 -117 -54 -212 -55 -210 -1 1 -5 162 -8 357 -13 738 -16 922
-21 1160 -4 229 -14 783 -19 1072 -2 140 -11 182 -12 60z"/>
<path d="M1920 5275 c13 -14 26 -25 28 -25 3 0 -5 11 -18 25 -13 14 -26 25
-28 25 -3 0 5 -11 18 -25z"/>
<path d="M4704 4094 c-18 -14 -18 -15 4 -4 12 6 22 13 22 15 0 8 -5 6 -26 -11z"/>
<path d="M270 3498 c0 -4 7 -8 15 -8 8 0 15 4 15 8 0 5 -7 9 -15 9 -8 0 -15
-4 -15 -9z"/>
<path d="M6786 3499 c2 -4 13 -7 24 -6 23 2 17 10 -10 12 -10 1 -17 -2 -14 -6z"/>
<path d="M2849 2993 c-13 -16 -12 -17 4 -4 16 13 21 21 13 21 -2 0 -10 -8 -17
-17z"/>
<path d="M3331 2624 c0 -11 3 -14 6 -6 3 7 2 16 -1 19 -3 4 -6 -2 -5 -13z"/>
<path d="M3920 2181 c0 -6 4 -13 10 -16 6 -3 7 1 4 9 -7 18 -14 21 -14 7z"/>
<path d="M1919 1723 c-13 -16 -12 -17 4 -4 9 7 17 15 17 17 0 8 -8 3 -21 -13z"/>
<path d="M3494 420 c0 -16 3 -30 6 -30 4 0 7 14 8 30 0 17 -3 30 -7 30 -4 0
-7 -13 -7 -30z"/>
</g>
</svg>
