<?xml version="1.0" standalone="no"?>
<!DOCTYPE svg PUBLIC "-//W3C//DTD SVG 20010904//EN"
 "http://www.w3.org/TR/2001/REC-SVG-20010904/DTD/svg10.dtd">
<svg version="1.0" xmlns="http://www.w3.org/2000/svg"
 width="700.000000pt" height="700.000000pt" viewBox="0 0 700.000000 700.000000"
 preserveAspectRatio="xMidYMid meet">
<metadata>
Created by potrace 1.14, written by Peter Selinger 2001-2017
</metadata>
<g transform="translate(0.000000,700.000000) scale(0.100000,-0.100000)"
fill="#000000" stroke="none">
<path d="M0 3500 l0 -3500 3500 0 3500 0 0 3500 0 3500 -3500 0 -3500 0 0
-3500z m6561 3045 c1 -26 1 -2147 0 -2160 -1 -10 -871 -15 -871 -5 -1 7 -1
2084 0 2140 l0 45 435 0 c428 0 435 0 436 -20z m-1311 -2389 l0 -1093 -437 1
-438 1 -1 1085 c0 597 1 1088 3 1093 2 4 200 7 439 7 l434 0 0 -1094z m-1314
-1313 l1 -1093 -437 0 -437 0 0 1094 0 1093 436 -1 436 -1 1 -1092z m2625
1088 c0 -3 1 -494 1 -1091 l1 -1085 -437 0 -438 0 1 1065 c0 586 0 1077 1
1091 l0 26 435 0 c239 0 435 -3 436 -6z m-3944 -1314 c4 -5 8 -497 8 -1093 0
-957 -2 -1084 -15 -1085 -8 0 -204 -1 -435 -1 l-420 -1 -3 1084 c-1 596 0
1089 2 1094 4 12 850 14 863 2z m2626 4 c4 0 6 -492 5 -1093 l-3 -1092 -428 1
c-235 0 -431 3 -435 7 -9 10 -10 2158 -1 2171 5 7 155 10 431 9 233 -1 426 -2
431 -3z m-4013 -1311 l85 0 -1 -431 c-1 -277 -6 -434 -12 -438 -13 -8 -850 -6
-859 2 -5 5 -8 773 -4 857 1 13 46 15 354 13 193 -1 390 -2 437 -3z m2641 1
l66 -1 -1 -437 -1 -436 -420 1 c-231 0 -427 1 -436 1 -15 1 -16 43 -16 434 l0
432 86 5 c72 4 244 4 722 1z m2687 -5 c3 -3 6 -199 6 -436 1 -423 1 -430 -19
-431 -99 -4 -839 -3 -846 2 -8 4 -15 705 -9 856 0 6 15 13 33 15 56 5 829 0
835 -6z"/>
</g>
</svg>
