<?xml version="1.0" standalone="no"?>
<!DOCTYPE svg PUBLIC "-//W3C//DTD SVG 20010904//EN"
 "http://www.w3.org/TR/2001/REC-SVG-20010904/DTD/svg10.dtd">
<svg version="1.0" xmlns="http://www.w3.org/2000/svg"
 width="4000.000000pt" height="4000.000000pt" viewBox="0 0 4000.000000 4000.000000"
 preserveAspectRatio="xMidYMid meet">
<metadata>
Created by potrace 1.14, written by Peter Selinger 2001-2017
</metadata>
<g transform="translate(0.000000,4000.000000) scale(0.100000,-0.100000)"
fill="#000000" stroke="none">
<path d="M1500 33993 c0 -24 0 -27941 0 -27975 l0 -28 3780 0 3780 0 1 23 c0
12 1 1934 1 4270 0 2336 2 4246 3 4245 2 -2 6 -57 9 -123 6 -115 9 -162 21
-285 2 -30 7 -84 10 -120 6 -71 11 -116 19 -170 3 -19 7 -57 10 -85 3 -27 8
-59 10 -70 2 -11 7 -47 11 -80 3 -32 8 -62 10 -65 2 -3 6 -27 9 -55 3 -27 8
-62 11 -77 6 -32 11 -59 25 -143 162 -915 536 -1937 1018 -2778 12 -20 30 -52
40 -70 84 -147 368 -587 444 -687 10 -14 42 -56 71 -95 57 -77 248 -327 257
-335 3 -3 39 -45 79 -95 259 -313 609 -676 901 -935 40 -36 78 -69 84 -75 6
-5 40 -35 76 -65 36 -30 67 -58 70 -61 8 -9 287 -230 365 -288 39 -29 79 -59
89 -68 70 -57 495 -340 646 -430 103 -62 284 -167 350 -203 125 -68 541 -274
636 -315 228 -97 310 -131 464 -190 261 -99 587 -206 815 -266 227 -60 438
-109 615 -144 14 -3 36 -8 50 -10 106 -22 401 -69 500 -80 25 -3 56 -7 70 -10
14 -2 54 -7 90 -10 36 -4 85 -9 110 -12 67 -8 105 -11 210 -18 52 -4 113 -9
135 -13 22 -3 4780 -7 10573 -9 l10532 -3 0 22 c0 29 0 7181 0 7388 l0 155
-10337 0 c-5686 1 -10360 4 -10388 8 -27 4 -60 9 -72 12 -13 3 -33 7 -44 10
-112 24 -267 87 -377 152 -319 187 -556 518 -626 873 -23 116 -26 150 -28 256
-6 533 299 1011 785 1233 73 34 238 85 302 95 22 3 51 8 65 12 14 4 2716 8
6005 9 5306 2 6166 4 6370 20 28 2 88 6 135 10 88 6 139 11 225 20 28 4 66 8
85 10 78 9 146 17 171 21 15 2 47 6 70 9 43 5 317 50 372 60 72 14 284 57 297
60 8 2 85 20 170 40 189 46 188 45 325 85 61 17 117 33 125 35 57 14 501 162
555 185 11 5 107 43 214 85 349 138 828 369 1099 530 9 6 44 26 77 44 423 244
962 630 1345 965 304 266 632 591 852 847 26 29 61 70 78 89 17 19 94 114 172
210 77 96 149 185 159 198 11 12 19 26 19 31 0 5 4 11 8 13 22 9 462 650 462
673 0 2 13 23 29 47 16 24 38 59 48 78 11 19 59 105 108 190 131 232 317 608
410 830 15 36 37 88 49 115 12 28 28 66 35 85 8 19 19 49 26 65 38 88 214 596
231 665 2 8 15 53 29 100 56 187 124 466 191 785 2 10 6 37 9 60 3 22 8 47 10
55 2 8 6 29 9 45 3 17 12 71 20 120 8 50 18 110 21 135 4 25 8 59 11 75 18
129 40 333 49 460 4 50 8 101 10 115 18 120 25 802 11 1075 -10 200 -21 354
-31 430 -3 17 -7 57 -10 90 -12 138 -61 482 -91 639 -11 58 -16 82 -45 221
-17 83 -32 157 -34 165 -2 8 -15 65 -30 125 -15 61 -28 117 -30 125 -8 41 -76
271 -145 495 -81 260 -220 621 -366 948 -45 101 -220 454 -264 532 -153 274
-185 330 -192 333 -4 2 -8 7 -8 12 0 5 -34 64 -76 132 -763 1229 -1825 2264
-3079 2998 -474 278 -1014 529 -1525 708 -125 44 -358 121 -387 127 -10 2 -72
20 -138 40 -66 19 -129 37 -140 40 -11 2 -74 17 -140 34 -66 17 -133 34 -150
36 -16 3 -38 8 -47 11 -9 3 -27 7 -40 9 -13 3 -43 9 -68 15 -25 5 -56 12 -70
14 -14 3 -95 18 -182 35 -86 16 -180 32 -209 36 -28 4 -61 9 -73 11 -12 2 -41
6 -66 9 -25 3 -54 8 -65 10 -11 2 -47 7 -80 10 -33 3 -91 10 -130 15 -71 9
-128 15 -270 25 -44 3 -105 9 -135 12 -30 4 -6491 8 -14357 10 -13634 3
-14303 2 -14303 -14z m28310 -7561 c139 -25 319 -86 400 -137 19 -12 42 -24
51 -28 22 -7 151 -100 197 -140 210 -185 353 -415 421 -677 16 -58 21 -92 36
-206 6 -43 6 -211 1 -259 -10 -82 -17 -125 -21 -137 -2 -7 -6 -24 -9 -38 -10
-60 -71 -222 -117 -310 -119 -227 -317 -429 -543 -554 -122 -68 -320 -132
-466 -152 -30 -4 -2748 -8 -6040 -9 -5212 -2 -6133 -5 -6345 -19 -87 -7 -222
-17 -255 -21 -19 -2 -64 -7 -100 -10 -115 -11 -449 -56 -525 -71 -24 -5 -58
-11 -105 -18 -19 -3 -46 -8 -60 -11 -14 -3 -38 -8 -55 -11 -16 -3 -48 -9 -70
-14 -22 -5 -56 -12 -75 -15 -27 -5 -317 -72 -390 -90 -321 -82 -879 -264
-1075 -350 -16 -7 -86 -37 -155 -65 -449 -186 -1020 -489 -1408 -749 -47 -31
-92 -60 -101 -66 -81 -49 -458 -326 -590 -432 -36 -30 -73 -59 -81 -66 -43
-35 -162 -136 -216 -183 -33 -29 -70 -62 -81 -71 -300 -261 -719 -702 -1031
-1088 -41 -51 -263 -346 -301 -400 -298 -429 -521 -803 -729 -1227 -126 -256
-303 -663 -342 -788 -5 -14 -20 -56 -35 -95 -50 -132 -166 -489 -195 -600 -4
-16 -20 -75 -35 -130 -87 -320 -180 -775 -210 -1025 -4 -30 -8 -57 -10 -60 -1
-3 -6 -34 -10 -70 -3 -36 -8 -78 -11 -95 -2 -16 -6 -55 -9 -85 -3 -30 -7 -68
-10 -85 -2 -16 -6 -68 -10 -115 -4 -47 -8 -105 -11 -130 -2 -25 -7 -97 -10
-160 -3 -63 -7 -116 -9 -118 -3 -4 -3 11182 1 11188 1 3 4655 5 10341 4 7765
0 10354 -3 10403 -12z"/>
</g>
</svg>
