<?xml version="1.0" standalone="no"?>
<!DOCTYPE svg PUBLIC "-//W3C//DTD SVG 20010904//EN"
 "http://www.w3.org/TR/2001/REC-SVG-20010904/DTD/svg10.dtd">
<svg version="1.0" xmlns="http://www.w3.org/2000/svg"
 width="1600.000000pt" height="1600.000000pt" viewBox="0 0 1600.000000 1600.000000"
 preserveAspectRatio="xMidYMid meet">
<metadata>
Created by potrace 1.14, written by Peter Selinger 2001-2017
</metadata>
<g transform="translate(0.000000,1600.000000) scale(0.100000,-0.100000)"
fill="#000000" stroke="none">
<path d="M0 8000 l0 -8000 8000 0 8000 0 0 8000 0 8000 -8000 0 -8000 0 0
-8000z m12310 5805 c341 -31 633 -95 939 -206 1157 -422 2040 -1409 2326
-2603 252 -1049 38 -2153 -584 -3019 -567 -790 -1399 -1315 -2361 -1491 -285
-53 -130 -50 -2960 -56 -2154 -4 -2632 -8 -2665 -19 -199 -66 -341 -211 -389
-397 -72 -280 83 -565 364 -666 l65 -23 4323 -3 4322 -2 0 -1570 0 -1570
-4338 0 c-2861 0 -4384 3 -4473 10 -380 29 -733 110 -1084 247 -1106 435
-1953 1404 -2231 2550 -44 184 -59 270 -84 477 -11 93 -22 171 -25 174 -3 3
-5 -774 -5 -1726 l0 -1732 -1570 0 -1570 0 0 5820 0 5820 5918 0 c5138 0 5939
-2 6082 -15z"/>
<path d="M3450 8388 c0 -1260 2 -2289 5 -2287 2 3 11 70 20 150 36 348 113
664 241 991 38 98 159 352 217 453 264 469 655 899 1095 1205 528 368 1088
579 1726 651 164 18 273 19 2727 19 2522 0 2557 0 2634 20 227 58 382 234 416
471 10 72 10 96 -4 164 -35 169 -139 312 -283 387 -141 74 258 68 -4505 68
l-4289 0 0 -2292z"/>
</g>
</svg>
