<?xml version="1.0" standalone="no"?>
<!DOCTYPE svg PUBLIC "-//W3C//DTD SVG 20010904//EN"
 "http://www.w3.org/TR/2001/REC-SVG-20010904/DTD/svg10.dtd">
<svg version="1.0" xmlns="http://www.w3.org/2000/svg"
 width="512.000000pt" height="512.000000pt" viewBox="0 0 512.000000 512.000000"
 preserveAspectRatio="xMidYMid meet">
<metadata>
Created by potrace 1.14, written by Peter Selinger 2001-2017
</metadata>
<g transform="translate(0.000000,512.000000) scale(0.100000,-0.100000)"
fill="#000000" stroke="none">
<path d="M2554 4705 c-1 -25 3 -45 7 -45 4 0 7 20 6 45 0 25 -3 45 -7 45 -3 0
-6 -20 -6 -45z"/>
<path d="M2549 4513 c0 -76 -2 -205 -3 -288 -2 -82 -7 -346 -11 -585 -4 -239
-9 -487 -10 -550 -2 -63 -4 -130 -4 -149 -1 -40 -7 -38 -16 4 -12 65 -62 255
-67 261 -4 3 -3 -12 2 -33 4 -21 11 -60 14 -88 3 -27 10 -74 16 -104 5 -30 8
-56 6 -58 -3 -4 -10 14 -71 182 -20 55 -45 123 -55 150 -10 28 -30 82 -44 120
-14 39 -25 66 -25 60 -1 -5 44 -147 100 -315 120 -363 130 -396 120 -384 -4 5
-58 87 -121 182 -149 227 -155 230 -32 12 35 -63 78 -140 95 -170 l30 -55 -34
36 c-19 19 -70 75 -114 123 -44 48 -96 104 -115 125 -43 46 -231 250 -245 265
-10 12 -45 50 -225 246 -113 123 -214 231 -275 295 l-38 40 33 -40 c18 -22 59
-69 90 -105 165 -187 249 -283 390 -445 85 -98 160 -183 165 -189 6 -6 37 -43
70 -81 33 -39 62 -72 65 -75 6 -6 124 -143 154 -180 l21 -24 -35 25 c-160 118
-260 189 -260 185 0 -2 33 -30 73 -62 39 -33 74 -61 77 -64 3 -3 30 -25 60
-50 78 -62 79 -64 40 -47 -37 16 -295 132 -494 223 -65 30 -120 53 -122 51 -2
-2 128 -71 290 -153 162 -82 293 -150 291 -152 -1 -1 -73 18 -160 43 -87 25
-159 44 -161 42 -2 -2 13 -9 34 -16 20 -7 46 -16 57 -21 11 -5 57 -23 103 -40
45 -17 82 -33 82 -35 0 -1 -17 -3 -37 -2 -47 0 -513 -13 -643 -18 -52 -2 -214
-7 -360 -11 -146 -4 -296 -8 -335 -9 -91 -3 -643 -18 -672 -19 -36 0 -15 -10
25 -12 20 -1 152 -4 292 -8 140 -4 302 -9 360 -11 58 -2 213 -6 345 -10 275
-8 377 -11 710 -21 132 -4 257 -7 277 -8 45 0 39 -9 -22 -30 -74 -25 -196 -75
-185 -75 6 -1 73 17 150 39 76 22 143 40 147 40 4 0 -125 -67 -288 -150 -277
-139 -358 -183 -274 -147 19 8 52 22 74 32 21 9 138 61 260 117 257 117 295
133 281 121 -10 -10 -129 -106 -228 -186 -32 -26 -55 -47 -52 -47 4 0 221 153
274 194 12 9 12 8 3 -11 -7 -12 -15 -23 -19 -25 -5 -1 -51 -52 -103 -113 -52
-60 -107 -123 -121 -140 -15 -16 -143 -163 -284 -325 -141 -162 -284 -325
-317 -363 -33 -37 -71 -82 -85 -100 -30 -38 35 31 156 162 47 52 93 102 101
111 29 31 225 243 235 254 31 35 128 140 184 201 36 39 111 120 166 180 55 60
115 125 134 145 l34 35 -31 -55 c-16 -30 -40 -73 -53 -95 -99 -177 -139 -249
-139 -254 0 -3 56 79 125 184 69 104 128 191 130 193 5 6 -41 -138 -138 -432
-48 -143 -85 -261 -83 -263 2 -2 10 16 19 39 105 293 176 475 172 443 -7 -49
-24 -152 -30 -182 -3 -13 -2 -23 3 -23 4 0 21 52 36 116 16 63 30 113 33 110
6 -5 7 -80 18 -716 4 -228 9 -487 10 -575 2 -88 4 -226 5 -307 1 -82 5 -148
10 -148 5 0 9 78 10 173 1 94 3 233 5 307 1 74 6 322 10 550 8 476 13 686 15
715 1 11 19 -47 40 -130 40 -155 47 -167 30 -55 -15 100 -23 176 -18 170 3 -3
22 -52 43 -110 20 -58 41 -114 45 -125 5 -11 25 -66 46 -123 20 -57 38 -101
40 -99 2 2 -45 151 -105 333 -60 181 -109 330 -108 331 2 1 59 -83 127 -187
69 -103 126 -187 128 -185 1 1 -33 65 -76 141 -43 77 -93 166 -111 199 l-32
60 36 -40 c21 -22 80 -86 134 -144 53 -57 101 -109 106 -115 6 -6 60 -65 120
-131 61 -66 115 -125 120 -131 27 -30 208 -226 266 -288 36 -39 108 -117 159
-173 52 -57 95 -103 98 -103 2 0 -11 17 -29 38 -41 46 -119 135 -229 262 -46
52 -109 124 -140 160 -31 36 -139 160 -240 275 -100 116 -209 239 -240 275
-32 36 -69 79 -81 95 -23 30 -21 29 26 -8 16 -13 196 -141 219 -156 28 -19
-40 45 -84 78 -19 14 -37 28 -40 31 -3 3 -30 25 -60 50 -78 62 -79 64 -40 47
43 -18 360 -161 415 -187 22 -10 63 -29 90 -41 28 -12 68 -30 89 -40 22 -10
41 -17 43 -15 2 2 -134 72 -301 157 -168 84 -303 155 -302 157 2 2 75 -18 161
-43 87 -25 160 -44 162 -42 1 2 -54 25 -124 50 -71 26 -134 51 -141 55 -7 5
54 10 135 11 81 2 180 4 218 6 39 2 189 6 335 10 146 4 303 8 350 10 47 2 202
6 345 10 143 4 296 9 340 10 44 2 128 4 188 5 59 1 107 6 107 10 0 4 -53 9
-117 10 -65 1 -152 4 -193 5 -41 2 -185 6 -320 10 -135 3 -292 8 -350 10 -58
2 -220 7 -360 10 -140 4 -286 8 -325 10 -38 2 -134 4 -212 5 -78 2 -140 6
-138 10 3 5 44 23 93 40 48 18 110 41 137 51 28 10 45 18 38 19 -13 0 -276
-74 -320 -91 -70 -26 15 21 304 167 172 86 311 159 310 161 -2 1 -21 -6 -43
-16 -21 -10 -131 -60 -244 -111 -113 -51 -234 -106 -270 -122 -89 -41 -110
-49 -110 -40 0 4 16 18 34 32 41 30 227 179 241 193 21 21 -23 -9 -165 -112
-139 -101 -143 -103 -103 -55 40 48 156 182 273 314 72 81 198 226 270 310 30
35 91 104 135 154 44 50 89 102 100 115 11 14 27 32 35 41 8 9 41 47 74 85 66
79 27 40 -119 -119 -55 -60 -114 -124 -131 -143 -18 -18 -72 -77 -120 -130
-49 -54 -96 -104 -104 -113 -8 -9 -37 -41 -65 -71 -57 -62 -241 -262 -330
-359 -90 -97 -118 -126 -112 -115 2 6 43 78 89 160 154 272 152 277 -12 30
-62 -93 -114 -172 -115 -173 -6 -6 18 68 105 331 45 137 80 250 77 253 -2 2
-37 -86 -77 -196 -40 -110 -74 -199 -76 -197 -2 1 6 58 17 126 11 68 19 127
17 133 -2 5 -19 -53 -38 -131 -19 -77 -36 -138 -38 -136 -4 4 -6 95 -17 720
-4 220 -8 459 -10 530 -1 72 -3 210 -4 308 -1 110 -5 177 -11 177 -6 0 -10
-53 -11 -137z"/>
<path d="M2260 3476 c0 -8 4 -17 9 -20 5 -4 7 3 4 14 -6 23 -13 26 -13 6z"/>
<path d="M2846 3475 c-9 -26 -7 -32 5 -12 6 10 9 21 6 23 -2 3 -7 -2 -11 -11z"/>
<path d="M2819 3393 c-11 -25 -18 -51 -16 -56 2 -6 12 15 24 46 25 69 20 75
-8 10z"/>
<path d="M1710 2976 c0 -2 7 -7 16 -10 8 -3 12 -2 9 4 -6 10 -25 14 -25 6z"/>
<path d="M4870 2560 c0 -5 5 -10 10 -10 6 0 10 5 10 10 0 6 -4 10 -10 10 -5 0
-10 -4 -10 -10z"/>
<path d="M4905 2560 c3 -5 8 -10 11 -10 2 0 4 5 4 10 0 6 -5 10 -11 10 -5 0
-7 -4 -4 -10z"/>
<path d="M2000 2380 c-8 -5 -10 -10 -5 -10 6 0 17 5 25 10 8 5 11 10 5 10 -5
0 -17 -5 -25 -10z"/>
<path d="M1715 2150 c-3 -6 1 -7 9 -4 18 7 21 14 7 14 -6 0 -13 -4 -16 -10z"/>
<path d="M2441 1944 c0 -11 3 -14 6 -6 3 7 2 16 -1 19 -3 4 -6 -2 -5 -13z"/>
<path d="M2831 1700 c0 -8 4 -22 9 -30 12 -18 12 -2 0 25 -6 13 -9 15 -9 5z"/>
<path d="M2550 430 c0 -5 5 -10 10 -10 6 0 10 5 10 10 0 6 -4 10 -10 10 -5 0
-10 -4 -10 -10z"/>
<path d="M2554 376 c2 -49 12 -53 12 -6 0 22 -3 40 -7 40 -4 0 -6 -15 -5 -34z"/>
<path d="M2553 305 c0 -8 4 -12 9 -9 5 3 6 10 3 15 -9 13 -12 11 -12 -6z"/>
</g>
</svg>
