<?xml version="1.0" encoding="UTF-8"?><svg id="Calque_1" xmlns="http://www.w3.org/2000/svg" viewBox="0 0 59.68 8.19"><defs><style>.cls-1{fill:#060607;}</style></defs><path class="cls-1" d="M0,.11H3.7c1.36,0,2.44,.91,2.44,2.16,0,1.01-.44,1.67-1.35,2.01,.86,0,1.24,.41,1.24,1.13v2.66h-1.54v-2.27c0-.57-.17-.74-.74-.74H1.54v3.01H0V.11ZM3.24,3.72c.91,0,1.36-.41,1.36-1.15s-.45-1.09-1.36-1.09H1.54V3.72h1.71Z"/><path class="cls-1" d="M7.69,5.29V.11h1.54V5.06c0,1.25,.51,1.76,1.54,1.76h.11c1.02,0,1.54-.51,1.54-1.76V.11h1.54V5.29c0,1.82-.97,2.9-3.13,2.9s-3.13-1.08-3.13-2.9Z"/><path class="cls-1" d="M15.74,.11h3.58c1.54,0,2.56,.91,2.56,2.5s-1.02,2.51-2.56,2.51h-2.05v2.94h-1.54V.11Zm3.41,3.65c.8,0,1.19-.47,1.19-1.15s-.4-1.14-1.19-1.14h-1.88V3.76h1.88Z"/><path class="cls-1" d="M25.17,1.48h-2.75V.11h7.05V1.48h-2.76v6.6h-1.54V1.48Z"/><path class="cls-1" d="M30.54,5.29V.11h1.54V5.06c0,1.25,.51,1.76,1.54,1.76h.11c1.02,0,1.54-.51,1.54-1.76V.11h1.54V5.29c0,1.82-.97,2.9-3.13,2.9s-3.13-1.08-3.13-2.9Z"/><path class="cls-1" d="M38.59,.11h3.7c1.36,0,2.44,.91,2.44,2.16,0,1.01-.44,1.67-1.35,2.01,.86,0,1.24,.41,1.24,1.13v2.66h-1.54v-2.27c0-.57-.17-.74-.74-.74h-2.22v3.01h-1.54V.11Zm3.24,3.6c.91,0,1.36-.41,1.36-1.15s-.45-1.09-1.36-1.09h-1.71V3.72h1.71Z"/><path class="cls-1" d="M46.34,.11h6.03V1.48h-4.49v1.83h3.81v1.36h-3.81v2.04h4.61v1.36h-6.14V.11Z"/><path class="cls-1" d="M56.67,1.36h-.11c-.85,0-1.36,.45-1.36,.97s.28,.76,.97,.9l1.19,.24c1.36,.27,2.21,.98,2.21,2.27,0,1.36-1.09,2.44-3.06,2.44-2.18,0-3.18-1.14-3.24-2.79h1.54c.06,.8,.63,1.42,1.82,1.42h.11c.85,0,1.3-.45,1.3-.97,0-.45-.19-.73-.9-.88l-1.42-.3c-1.42-.3-2.05-1.11-2.05-2.3s1.06-2.39,3.01-2.39,3.01,1.1,3.01,2.62h-1.54c-.06-.83-.66-1.25-1.48-1.25Z"/></svg>