<?xml version="1.0" encoding="UTF-8"?><svg id="Calque_1" xmlns="http://www.w3.org/2000/svg" viewBox="0 0 41.95 8.18"><defs><style>.cls-1{fill:#060607;}</style></defs><path class="cls-1" d="M3.41,1.36h-.11c-.85,0-1.36,.45-1.36,.97s.28,.76,.97,.9l1.19,.24c1.36,.27,2.21,.98,2.21,2.27,0,1.36-1.09,2.44-3.06,2.44C1.06,8.19,.06,7.05,0,5.4H1.54c.06,.8,.63,1.42,1.82,1.42h.11c.85,0,1.3-.45,1.3-.97,0-.45-.19-.73-.9-.88l-1.42-.3C1.02,4.39,.4,3.57,.4,2.39S1.46,0,3.41,0s3.01,1.1,3.01,2.62h-1.53c-.06-.83-.66-1.25-1.48-1.25Z"/><path class="cls-1" d="M9.65,1.48h-2.75V.11h7.05V1.48h-2.76v6.6h-1.54V1.48Z"/><path class="cls-1" d="M15.02,5.29V.11h1.54V5.06c0,1.25,.51,1.76,1.54,1.76h.11c1.02,0,1.54-.51,1.54-1.76V.11h1.53V5.29c0,1.82-.97,2.9-3.13,2.9s-3.13-1.08-3.13-2.9Z"/><path class="cls-1" d="M23.07,.11h2.73c2.39,0,4.04,1.36,4.04,3.98s-1.59,3.98-3.98,3.98h-2.79V.11Zm2.62,6.6c1.53,0,2.62-.63,2.62-2.62s-1.08-2.62-2.62-2.62h-1.08V6.71h1.08Z"/><path class="cls-1" d="M31.27,.11h1.54v7.96h-1.54V.11Z"/><path class="cls-1" d="M34.22,4.09c0-2.56,1.59-4.09,3.87-4.09s3.87,1.54,3.87,4.09-1.59,4.09-3.87,4.09-3.87-1.54-3.87-4.09Zm3.92,2.73c1.42,0,2.27-1.02,2.27-2.73s-.85-2.73-2.27-2.73h-.11c-1.42,0-2.27,1.02-2.27,2.73s.85,2.73,2.27,2.73h.11Z"/></svg>