<?xml version="1.0" encoding="UTF-8"?><svg id="Calque_1" xmlns="http://www.w3.org/2000/svg" viewBox="0 0 26.49 26.33"><defs><style>.cls-1{fill:#060607;}</style></defs><polygon class="cls-1" points="13.97 13.86 15.95 15.28 14 13.7 18.37 15.67 14.19 13.56 16.52 14.23 14.6 13.51 26.49 13.17 14.6 12.82 16.52 12.1 14.19 12.77 18.37 10.66 14 12.63 15.95 11.05 13.97 12.47 19.81 5.78 13.66 12.46 15.04 10 13.48 12.36 15.14 7.33 13.65 11.44 13.94 9.5 13.44 11.45 13.25 .12 13.25 0 13.24 .06 13.24 0 13.24 .12 13.04 11.45 12.55 9.5 12.84 11.44 11.35 7.33 13.01 12.36 11.45 10 12.82 12.46 6.68 5.78 12.52 12.47 10.54 11.05 12.48 12.63 8.12 10.66 12.3 12.77 9.97 12.1 11.89 12.82 0 13.17 11.89 13.51 9.97 14.23 12.3 13.56 8.12 15.67 12.48 13.7 10.54 15.28 12.52 13.86 6.68 20.55 12.82 13.87 11.45 16.33 13.01 13.98 11.35 19 12.84 14.89 12.55 16.83 13.04 14.88 13.24 26.22 13.24 26.33 13.24 26.28 13.25 26.33 13.25 26.22 13.44 14.88 13.94 16.83 13.65 14.89 15.14 19 13.48 13.98 15.04 16.33 13.66 13.87 19.81 20.55 13.97 13.86"/></svg>